PathFileType	4	(X/Y/Z)	/Users/itak/Documents/Research/Walk-IL/dataset/trc/00085_00006.trc
DataRate	CameraRate	NumFrames	NumMarkers	Units	OrigDataRate	OrigDataStartFrame	OrigNumFrames
100.000000	100.000000	4	53	mm	100.000000	131	524
Frame#	Time	RPSI			LPSI			L3			STRN			T10			C7			CLAV			RBAK			LBAK			LSHO			LUPA			LAEL			LAOL			LWTS			LWPS			LFRA			LIFD			LHPS			LHTS			RSHO			RUPA			RAEL			RAOL			RWTS			RWPS			RFRA			RIFD			RHTS			RHPS			RBHD			LFHD			RFHD			LBHD			LHIP			RHIP			RASI			LASI			LKNE			LTHI			LANK			LTIP			LTOE			LMT1			LMT5			LHEE			RKNE			RTHI			RANK			RTIP			RTOE			RMT1			RMT5			RHEE			
		X1	Y1	Z1	X2	Y2	Z2	X3	Y3	Z3	X4	Y4	Z4	X5	Y5	Z5	X6	Y6	Z6	X7	Y7	Z7	X8	Y8	Z8	X9	Y9	Z9	X10	Y10	Z10	X11	Y11	Z11	X12	Y12	Z12	X13	Y13	Z13	X14	Y14	Z14	X15	Y15	Z15	X16	Y16	Z16	X17	Y17	Z17	X18	Y18	Z18	X19	Y19	Z19	X20	Y20	Z20	X21	Y21	Z21	X22	Y22	Z22	X23	Y23	Z23	X24	Y24	Z24	X25	Y25	Z25	X26	Y26	Z26	X27	Y27	Z27	X28	Y28	Z28	X29	Y29	Z29	X30	Y30	Z30	X31	Y31	Z31	X32	Y32	Z32	X33	Y33	Z33	X34	Y34	Z34	X35	Y35	Z35	X36	Y36	Z36	X37	Y37	Z37	X38	Y38	Z38	X39	Y39	Z39	X40	Y40	Z40	X41	Y41	Z41	X42	Y42	Z42	X43	Y43	Z43	X44	Y44	Z44	X45	Y45	Z45	X46	Y46	Z46	X47	Y47	Z47	X48	Y48	Z48	X49	Y49	Z49	X50	Y50	Z50	X51	Y51	Z51	X52	Y52	Z52	X53	Y53	Z53	

132	1.31	-1341.227661132812	1035.8583984375	490.4967956542969	-1345.299926757812	1031.734619140625	315.3972778320312	-1339.288208007812	1088.05029296875	394.2073364257812	-1088.0498046875	1283.271484375	409.9646301269531	-1354.23291015625	1220.08349609375	383.1173095703125	-1293.846069335938	1487.354858398438	389.7151794433594	-1117.070190429688	1397.823608398438	407.5702514648438	-1364.303466796875	1348.265625	456.0015869140625	-1306.39208984375	1451.5546875	285.3212890625	-1195.476684570312	1455.41650390625	223.5318145751953	-1203.381958007812	1329.024047851562	143.4581909179688	-1181.685302734375	1113.651977539062	125.3102645874023	-1256.635620117188	1099.386352539062	200.1149291992188	-1105.456176757812	871.4022827148438	197.5675659179688	-1154.2197265625	862.21484375	129.7093200683594	-1162.029174804688	1004.419250488281	119.4709854125977	-1103.598999023438	684.2183837890625	216.4251251220703	-1124.72216796875	781.225830078125	137.9594268798828	-1083.962280273438	788.9161987304688	196.2703857421875	-1247.994140625	1446.195678710938	570.0186157226562	-1266.298461914062	1375.8232421875	629.4212036132812	-1304.634399414062	1112.076171875	649.6254272460938	-1274.723266601562	1091.158203125	556.4137573242188	-1158.867797851562	859.224853515625	629.9273681640625	-1236.490112304688	844.791748046875	669.3538208007812	-1293.67236328125	1031.853271484375	657.5625610351562	-1157.186767578125	672.0972290039062	607.58251953125	-1137.054931640625	757.8464965820312	631.2049560546875	-1200.232299804688	755.4331665039062	675.68115234375	-1264.9404296875	1663.411010742188	341.5366821289062	-1099.14208984375	1700.646118164062	474.9306640625	-1092.077514648438	1707.041625976562	349.455322265625	-1263.512939453125	1649.70703125	479.0812377929688	-1241.989135742188	964.4998779296875	227.0026550292969	-1275.706420898438	963.1763916015625	568.8231811523438	-1151.110473632812	978.1514282226562	549.4391479492188	-1128.81689453125	970.8541870117188	279.399169921875	-1196.463623046875	499.9916076660156	280.8619995117188	-1219.198120117188	641.0576171875	243.70703125	-1336.613037109375	52.33843231201172	270.7428588867188	-1275.715209960938	265.0190734863281	262.69140625	-1130.416259765625	47.11283111572266	273.063720703125	-1179.048095703125	45.41470718383789	327.1246032714844	-1234.586303710938	45.28734970092773	230.1487274169922	-1387.694213867188	46.08828353881836	349.377197265625	-1200.840942382812	515.7918701171875	533.7587280273438	-1192.107299804688	784.3259887695312	573.1268310546875	-1331.961181640625	44.72283172607422	515.0531005859375	-1228.128051757812	392.115478515625	535.482177734375	-1115.15283203125	53.25150299072266	482.146240234375	-1175.0263671875	52.7745361328125	442.426513671875	-1209.294189453125	53.97126388549805	533.2538452148438	-1376.82861328125	45.40748977661133	455.1225280761719	
133	1.32	-1340.057983398438	1035.625854492188	491.5037536621094	-1343.765869140625	1031.253173828125	316.4031677246094	-1337.960571289062	1087.838989257812	395.2943115234375	-1086.7138671875	1283.06298828125	411.5665283203125	-1352.918823242188	1219.958862304688	384.3006286621094	-1292.409423828125	1487.185913085938	391.0782165527344	-1115.736450195312	1397.5810546875	409.1202087402344	-1362.944946289062	1348.125610351562	457.2018127441406	-1304.89306640625	1451.401611328125	286.6654663085938	-1193.901245117188	1455.241943359375	225.0129241943359	-1201.94580078125	1328.978271484375	144.8828125	-1180.675903320312	1113.699951171875	126.2920913696289	-1255.455688476562	1099.385620117188	201.23681640625	-1104.498779296875	871.2779541015625	197.9167175292969	-1153.462890625	862.24951171875	130.1596221923828	-1161.14990234375	1004.440673828125	120.2088775634766	-1102.810791015625	684.1083984375	216.4522552490234	-1123.987182617188	781.1956787109375	138.23193359375	-1083.2265625	788.4774780273438	196.2787933349609	-1246.760498046875	1446.036376953125	571.4017944335938	-1265.247314453125	1375.728637695312	630.8253784179688	-1303.973510742188	1112.016967773438	650.9606323242188	-1273.859375	1091.090942382812	557.742431640625	-1158.267456054688	859.1405639648438	631.2778930664062	-1235.8857421875	844.647705078125	670.59130859375	-1293.033813476562	1031.760131835938	658.8193359375	-1156.615844726562	671.9901123046875	608.695556640625	-1136.48388671875	757.7040405273438	632.4056396484375	-1199.718627929688	755.2702026367188	676.802490234375	-1263.256225585938	1663.23828125	343.0583801269531	-1097.343139648438	1700.294677734375	476.3648376464844	-1090.36669921875	1706.705932617188	350.8898315429688	-1261.726806640625	1649.508666992188	480.5626220703125	-1240.152099609375	964.2698974609375	228.1056518554688	-1274.715576171875	962.9533081054688	570.1307373046875	-1150.056030273438	978.0203247070312	551.0338134765625	-1127.16015625	970.7361450195312	280.9511108398438	-1192.516235351562	499.6480407714844	282.3183898925781	-1215.434448242188	640.5281982421875	244.7944641113281	-1336.592407226562	52.30161666870117	270.7138061523438	-1273.759399414062	264.6757507324219	263.0843505859375	-1130.379150390625	47.05426406860352	273.0259704589844	-1179.00830078125	45.40866470336914	327.0888061523438	-1234.568359375	45.16314315795898	230.0782165527344	-1387.478515625	46.08417129516602	349.5092163085938	-1200.420043945312	515.6201782226562	534.4678344726562	-1191.2109375	784.0927124023438	574.234619140625	-1331.955444335938	44.56254959106445	515.4012451171875	-1227.72216796875	391.8962097167969	536.1116333007812	-1115.30078125	53.44570922851562	481.7498474121094	-1175.311767578125	52.83064651489258	442.2441711425781	-1209.330078125	54.01572036743164	533.1127319335938	-1377.260620117188	45.45592498779297	455.4598693847656	
134	1.33	-1338.895629882812	1035.399047851562	492.5285034179688	-1342.2177734375	1030.67236328125	317.4128112792969	-1336.60791015625	1087.592895507812	396.4000854492188	-1085.311279296875	1282.786010742188	413.1920776367188	-1351.576049804688	1219.820068359375	385.5259704589844	-1290.883911132812	1486.987670898438	392.4955749511719	-1114.34423828125	1397.291381835938	410.707275390625	-1361.497314453125	1347.959594726562	458.4460754394531	-1303.3349609375	1451.233032226562	288.0752868652344	-1192.2890625	1455.03662109375	226.5408935546875	-1200.512817382812	1328.9228515625	146.3519897460938	-1179.698364257812	1113.738037109375	127.2720718383789	-1254.281860351562	1099.369384765625	202.3756561279297	-1103.478271484375	871.1763305664062	198.2844848632812	-1152.664306640625	862.27587890625	130.6527252197266	-1160.282958984375	1004.455505371094	120.9488296508789	-1101.929321289062	684.0269165039062	216.5174407958984	-1123.198608398438	781.1700439453125	138.5469818115234	-1082.367553710938	788.0982055664062	196.3447113037109	-1245.424926757812	1445.847778320312	572.8299560546875	-1264.107421875	1375.622436523438	632.2794189453125	-1303.224243164062	1111.931884765625	652.3599853515625	-1272.946655273438	1091.007690429688	559.1439819335938	-1157.556396484375	859.0478515625	632.659912109375	-1235.177856445312	844.4866943359375	671.8701171875	-1292.302856445312	1031.645751953125	660.1390991210938	-1155.937744140625	671.8607177734375	609.8052368164062	-1135.7685546875	757.5601806640625	633.6224365234375	-1199.085083007812	755.0667114257812	677.9514770507812	-1261.484619140625	1663.010131835938	344.6089477539062	-1095.458862304688	1699.88720703125	477.8167114257812	-1088.591918945312	1706.325561523438	352.3436584472656	-1259.8544921875	1649.259765625	482.1024475097656	-1238.28076171875	963.9717407226562	229.19580078125	-1273.748046875	962.7203369140625	571.4363403320312	-1148.982543945312	977.8823852539062	552.6705322265625	-1125.500610351562	970.5640869140625	282.5581970214844	-1187.874877929688	499.1607666015625	283.9151916503906	-1211.1943359375	639.896728515625	245.9013061523438	-1336.532836914062	52.32195663452148	270.6922912597656	-1271.443603515625	264.2772216796875	263.4957580566406	-1130.302368164062	46.96243667602539	272.9758911132812	-1178.929809570312	45.40283203125	327.0259094238281	-1234.534545898438	45.02506637573242	229.9858245849609	-1387.208251953125	46.22113800048828	349.6651916503906	-1199.96142578125	515.4179077148438	535.2219848632812	-1190.250732421875	783.8330688476562	575.3740234375	-1331.968383789062	44.39750289916992	515.7628173828125	-1227.27099609375	391.6495666503906	536.7674560546875	-1115.426391601562	53.53470611572266	481.3748168945312	-1175.574829101562	52.83731460571289	442.0740356445312	-1209.367065429688	53.99849700927734	532.998046875	-1377.642211914062	45.47818374633789	455.8357238769531	
135	1.34	-1337.748168945312	1035.175415039062	493.5744323730469	-1340.676025390625	1029.985229492188	318.4218139648438	-1335.237060546875	1087.307373046875	397.5231628417969	-1083.846557617188	1282.427124023438	414.8302307128906	-1350.209106445312	1219.663940429688	386.7913208007812	-1289.262817382812	1486.756958007812	393.9693908691406	-1112.884399414062	1396.944580078125	412.3220825195312	-1359.960083007812	1347.764282226562	459.7386779785156	-1301.716186523438	1451.047485351562	289.5534362792969	-1190.643676757812	1454.794799804688	228.1123962402344	-1199.093139648438	1328.851928710938	147.8611602783203	-1178.760620117188	1113.76025390625	128.2398986816406	-1253.122802734375	1099.33056640625	203.5219116210938	-1102.394287109375	871.0962524414062	198.6698150634766	-1151.823364257812	862.2880249023438	131.1878967285156	-1159.435791015625	1004.461059570312	121.6821746826172	-1100.941040039062	683.97119140625	216.6250305175781	-1122.35107421875	781.1456909179688	138.9066467285156	-1081.376586914062	787.8076171875	196.4715118408203	-1243.9794921875	1445.61669921875	574.3028564453125	-1262.868896484375	1375.492797851562	633.7803344726562	-1302.38671875	1111.813354492188	653.8228759765625	-1271.974609375	1090.892822265625	560.613525390625	-1156.7236328125	858.93408203125	634.0632934570312	-1234.362915039062	844.3032836914062	673.1873168945312	-1291.480712890625	1031.489624023438	661.5294799804688	-1155.14599609375	671.7039184570312	610.9144897460938	-1134.909057617188	757.3980712890625	634.8613891601562	-1198.3173828125	754.8170166015625	679.1320190429688	-1259.631958007812	1662.7158203125	346.1967163085938	-1093.486572265625	1699.42578125	479.2833251953125	-1086.748779296875	1705.89599609375	353.8121643066406	-1257.894775390625	1648.954711914062	483.7026977539062	-1236.399658203125	963.5919189453125	230.2713623046875	-1272.794189453125	962.4757080078125	572.7105712890625	-1147.906127929688	977.7239379882812	554.33447265625	-1123.867309570312	970.3253173828125	284.2020263671875	-1182.455322265625	498.5040588378906	285.6123657226562	-1206.42822265625	639.1627807617188	247.0430145263672	-1336.416625976562	52.44857788085938	270.6809692382812	-1268.744750976562	263.8580932617188	263.9205017089844	-1130.190185546875	46.83847427368164	272.9086303710938	-1178.807495117188	45.39897537231445	326.9281921386719	-1234.477905273438	44.88277435302734	229.8684234619141	-1386.900268554688	46.61001586914062	349.8197631835938	-1199.463500976562	515.1845092773438	536.0433349609375	-1189.22509765625	783.5513916015625	576.5405883789062	-1332.006469726562	44.21755981445312	516.1232299804688	-1226.782836914062	391.3716735839844	537.461669921875	-1115.536376953125	53.52226638793945	481.0567321777344	-1175.808715820312	52.80595779418945	441.9365234375	-1209.420654296875	53.91555786132812	532.935302734375	-1377.9599609375	45.46874237060547	456.2227478027344	
